<?xml version="1.0" encoding="utf-8"?>
<!-- Generator: Adobe Illustrator 26.0.1, SVG Export Plug-In . SVG Version: 6.00 Build 0)  -->
<svg version="1.1" id="Layer_1" xmlns="http://www.w3.org/2000/svg" xmlns:xlink="http://www.w3.org/1999/xlink" x="0px" y="0px"
	 viewBox="0 0 1200 330.56" style="enable-background:new 0 0 1200 330.56;" xml:space="preserve">
<style type="text/css">
	.st0{fill:#FFFFFF;}
	.st1{fill:#868686;}
	.st2{fill:#FFC630;}
	.st3{fill:#EDB22C;}
	.st4{fill:#FFC52E;}
	.st5{fill:#FDF6E3;}
	.st6{fill:#5F2D1A;}
</style>
<g>
	<path class="st0" d="M265.65,137.34c0,54.18-44.08,98.27-98.27,98.27s-98.26-44.08-98.26-98.27s44.07-98.26,98.26-98.26
		S265.65,83.15,265.65,137.34z"/>
	<g>
		<path class="st1" d="M346.08,238.21c-3.69,0-6.79-1.26-9.29-3.79c-2.5-2.53-3.75-5.69-3.75-9.49v-0.52h2.78v0.41
			c0,3.04,0.98,5.57,2.95,7.6c1.96,2.03,4.4,3.04,7.31,3.04c2.85,0,5.25-1.02,7.2-3.05c1.95-2.04,2.92-4.56,2.92-7.58V198.5h2.78
			v26.43c0,3.8-1.23,6.96-3.7,9.49C352.82,236.94,349.75,238.21,346.08,238.21z"/>
		<path class="st1" d="M435.8,236.67c-2.52,1.03-5.22,1.54-8.11,1.54s-5.6-0.51-8.11-1.54c-2.52-1.03-4.66-2.43-6.44-4.21
			c-1.77-1.78-3.17-3.91-4.19-6.4c-1.02-2.48-1.53-5.14-1.53-7.98c0-3.8,0.86-7.24,2.59-10.31c1.73-3.07,4.14-5.49,7.23-7.24
			c3.09-1.75,6.57-2.63,10.45-2.63s7.35,0.88,10.45,2.63c3.09,1.75,5.5,4.17,7.23,7.24c1.73,3.07,2.59,6.51,2.59,10.31
			c0,2.84-0.51,5.5-1.53,7.99s-2.41,4.62-4.19,6.4S438.32,235.64,435.8,236.67z M418.73,233.18c2.66,1.52,5.65,2.28,8.96,2.28
			s6.29-0.75,8.96-2.26c2.66-1.51,4.74-3.59,6.22-6.23c1.48-2.65,2.22-5.6,2.22-8.88c0-2.45-0.44-4.76-1.31-6.91
			c-0.87-2.15-2.07-4-3.6-5.54c-1.53-1.54-3.37-2.75-5.52-3.64c-2.15-0.89-4.48-1.34-6.97-1.34c-2.47,0-4.79,0.45-6.95,1.34
			c-2.16,0.89-4.01,2.11-5.54,3.65c-1.53,1.54-2.73,3.4-3.6,5.55c-0.87,2.15-1.31,4.45-1.31,6.89c0,3.25,0.74,6.2,2.22,8.85
			C413.99,229.58,416.07,231.66,418.73,233.18z"/>
		<path class="st1" d="M511.24,238.15c-4.31,0-7.86-1.41-10.66-4.23c-2.8-2.82-4.2-6.41-4.2-10.77V198.5h2.84v24.46
			c0,3.65,1.12,6.64,3.37,8.96c2.25,2.32,5.13,3.48,8.66,3.48c3.51,0,6.39-1.16,8.63-3.48c2.24-2.32,3.37-5.3,3.37-8.96V198.5h2.84
			v24.65c0,4.36-1.4,7.95-4.2,10.77C519.07,236.74,515.53,238.15,511.24,238.15z"/>
		<path class="st1" d="M600.92,237.61l-9.76-16.44h-10.99v16.44h-2.84V198.5h14.4c3.51,0,6.41,1.07,8.71,3.2
			c2.3,2.14,3.45,4.86,3.45,8.17c0,2.85-0.9,5.3-2.69,7.32c-1.79,2.03-4.13,3.29-7.02,3.78l9.93,16.64H600.92z M580.17,201.2v17.29
			h11.45c2.76,0,5.02-0.8,6.78-2.41c1.75-1.61,2.63-3.68,2.63-6.2c0-2.53-0.88-4.6-2.63-6.23c-1.75-1.63-4.01-2.44-6.78-2.44H580.17
			z"/>
		<path class="st1" d="M680.41,198.5h2.75v39.11h-2.4l-24.93-34.14v34.14h-2.78V198.5h2.56l24.79,33.98V198.5z"/>
		<path class="st1" d="M737.75,234.91h19.17v2.7h-22.01V198.5h21.38v2.7h-18.55v14.78h17.1v2.62h-17.1V234.91z"/>
		<path class="st1" d="M834.09,198.5l-14.86,23.62v15.49h-2.89v-15.46l-14.7-23.64h3.08l13.09,20.94L831,198.5H834.09z"/>
		<path class="st1" d="M891.7,238.07c-4.18,0-7.55-1.1-10.12-3.31s-3.84-5.15-3.84-8.82h2.86c0,2.85,1.02,5.13,3.05,6.83
			c2.04,1.7,4.71,2.55,8.02,2.55c3.02,0,5.49-0.77,7.42-2.32c1.93-1.54,2.89-3.57,2.89-6.08c0-0.62-0.07-1.2-0.2-1.73
			c-0.14-0.54-0.3-1.01-0.49-1.43c-0.19-0.42-0.48-0.81-0.87-1.19c-0.39-0.37-0.75-0.69-1.08-0.94c-0.33-0.25-0.79-0.51-1.38-0.78
			c-0.59-0.26-1.08-0.47-1.47-0.63c-0.39-0.15-0.96-0.33-1.7-0.53c-0.75-0.2-1.33-0.35-1.75-0.45c-0.42-0.1-1.04-0.24-1.85-0.42
			c-1.62-0.36-2.85-0.66-3.71-0.89c-0.85-0.23-1.95-0.62-3.27-1.17c-1.33-0.55-2.33-1.15-3.01-1.8c-0.68-0.64-1.29-1.52-1.83-2.63
			c-0.54-1.11-0.81-2.37-0.81-3.79c0-3.22,1.16-5.77,3.49-7.66c2.33-1.89,5.44-2.84,9.33-2.84c3.8,0,6.83,1.01,9.08,3.01
			s3.38,4.7,3.38,8.09h-2.81c0-2.56-0.89-4.6-2.67-6.12c-1.78-1.52-4.13-2.28-7.04-2.28c-2.98,0-5.39,0.7-7.21,2.1
			c-1.83,1.4-2.74,3.26-2.74,5.59c0,0.58,0.07,1.13,0.2,1.65c0.14,0.52,0.3,0.97,0.49,1.36c0.19,0.39,0.48,0.77,0.87,1.13
			c0.39,0.36,0.75,0.67,1.06,0.93c0.32,0.26,0.77,0.5,1.36,0.75c0.59,0.25,1.09,0.45,1.49,0.6c0.4,0.15,0.96,0.33,1.69,0.52
			c0.73,0.19,1.3,0.34,1.72,0.44c0.42,0.1,1.03,0.24,1.83,0.42c1.18,0.27,2.08,0.49,2.69,0.64c0.61,0.15,1.45,0.4,2.51,0.74
			c1.06,0.34,1.89,0.66,2.47,0.98c0.58,0.32,1.25,0.75,2,1.31c0.75,0.55,1.32,1.15,1.7,1.77c0.38,0.63,0.71,1.39,1,2.28
			c0.28,0.89,0.42,1.87,0.42,2.94c0,3.38-1.23,6.09-3.7,8.13C898.71,237.05,895.55,238.07,891.7,238.07z"/>
	</g>
	<g>
		<g>
			<path class="st2" d="M333.04,37.33v151.3h8.06v-34.75c-1.35-4.24-2.05-8.77-2-13.44c0.05-4.34,0.74-8.53,2-12.48V37.33H333.04z"
				/>
		</g>
		<path class="st2" d="M402.55,141.8c0.02,10.75-8.64,19.52-19.29,19.53c-10.96,0.02-19.7-8.62-19.7-19.45
			c0.01-10.56,8.81-18.99,19.81-18.97C393.93,122.94,402.53,131.39,402.55,141.8z"/>
		<path class="st2" d="M402.55,141.8c0.02,10.75-8.64,19.52-19.29,19.53c-10.96,0.02-19.7-8.62-19.7-19.45
			c0.01-10.56,8.81-18.99,19.81-18.97C393.93,122.94,402.53,131.39,402.55,141.8z"/>
		<path class="st2" d="M402.55,141.8c0.02,10.75-8.64,19.52-19.29,19.53c-10.96,0.02-19.7-8.62-19.7-19.45
			c0.01-10.56,8.81-18.99,19.81-18.97C393.93,122.94,402.53,131.39,402.55,141.8z"/>
		<g>
			<path class="st2" d="M383.96,91.39c-17.97-0.22-33.83,8.82-42.86,22.63c-4.89,7.47-7.79,16.34-7.94,25.88
				c-0.17,10.3,2.77,19.93,7.94,27.97c8.79,13.67,24.06,22.79,41.57,23.03c27.44,0.37,49.9-21.74,50.29-49.43
				C433.31,114.5,411.04,91.73,383.96,91.39z M382.67,184.84c-19.5-0.31-36.02-13.32-41.57-30.95c-1.35-4.24-2.05-8.77-2-13.44
				c0.05-4.34,0.74-8.53,2-12.48c5.64-17.82,22.66-30.77,42.45-30.55c23.79,0.24,43.81,20.34,43.55,43.74
				C426.84,165.71,406.99,185.23,382.67,184.84z"/>
		</g>
	</g>
	<g>
		<path class="st2" d="M464.24,50.74c-1.55-1.41-3.34-2.12-5.34-2.12c-2.16,0-4.01,0.7-5.55,2.12c-1.55,1.41-2.32,3.26-2.32,5.55
			c0,2.15,0.77,3.97,2.32,5.44c1.54,1.49,3.39,2.22,5.55,2.22c2.01,0,3.79-0.73,5.34-2.22c1.54-1.47,2.31-3.29,2.31-5.44
			C466.56,54,465.79,52.16,464.24,50.74z M454.66,93.41v95.22h8.27V93.41H454.66z"/>
	</g>
	<g>
		<path class="st2" d="M669.64,151.11c-1.81-3.1-4.23-5.61-7.26-7.57c-3.03-1.94-6.49-3.47-10.4-4.53c-3.9-1.08-7.86-2.02-11.9-2.83
			c-3.5-0.67-6.86-1.45-10.08-2.32c-3.23-0.87-6.06-2.02-8.48-3.42c-2.42-1.41-4.37-3.2-5.85-5.36c-1.48-2.15-2.21-4.84-2.21-8.07
			c0-5.92,2.18-10.52,6.55-13.82c4.37-3.29,10.19-4.95,17.45-4.95c7.13,0,13.01,1.68,17.65,5.05c4.64,3.36,7.49,8.07,8.57,14.11
			l7.46-1.21c-1.48-7.8-5.2-13.89-11.2-18.26c-5.98-4.36-13.41-6.55-22.29-6.55c-9.41,0-17.05,2.32-22.9,6.96
			c-5.85,4.63-8.78,10.99-8.78,19.06c0,4.44,0.91,8.14,2.73,11.1c1.81,2.96,4.2,5.38,7.16,7.27c2.96,1.88,6.32,3.36,10.08,4.44
			c3.77,1.08,7.67,2.02,11.7,2.82c3.5,0.68,6.86,1.41,10.08,2.22c3.23,0.81,6.08,1.99,8.57,3.53c2.48,1.54,4.47,3.5,5.95,5.85
			c1.48,2.35,2.22,5.34,2.22,8.97c0,6.06-2.26,10.97-6.76,14.73c-4.51,3.77-10.59,5.65-18.26,5.65c-7.81,0-14.3-2.12-19.47-6.35
			c-5.18-4.24-8.3-9.78-9.38-16.65l-7.27,1.81c1.48,8.21,5.48,14.9,12.01,20.08c6.52,5.17,14.63,7.76,24.31,7.76
			c4.7,0,9.07-0.64,13.11-1.92c4.04-1.27,7.49-3.09,10.39-5.44c2.89-2.35,5.15-5.25,6.76-8.67c1.62-3.43,2.43-7.3,2.43-11.61
			C672.37,158.17,671.45,154.2,669.64,151.11z"/>
	</g>
	<path class="st3" d="M763.55,177.04c-6.06,4.37-13.25,6.55-21.58,6.55c-5.66,0-10.8-1.04-15.44-3.13
		c-4.63-2.08-8.67-5.01-12.1-8.77c-3.42-3.77-6.09-8.28-7.97-13.52c-1.88-5.25-2.82-10.96-2.82-17.16c0-6.18,0.94-11.9,2.82-17.15
		c1.88-5.24,4.55-9.75,7.97-13.52c3.43-3.76,7.47-6.68,12.1-8.77c4.64-2.08,9.78-3.13,15.44-3.13c8.34,0,15.53,2.19,21.58,6.55
		c6.05,4.37,10.42,10.32,13.11,17.86l7.47-1.21c-3.1-9.29-8.35-16.65-15.74-22.09c-7.4-5.45-16.21-8.17-26.42-8.17
		c-6.73,0-12.95,1.24-18.67,3.74c-5.71,2.48-10.62,5.92-14.74,10.29c-4.11,4.37-7.34,9.58-9.68,15.63
		c-2.34,6.05-3.52,12.71-3.52,19.96c0,7.27,1.18,13.93,3.52,19.97c2.34,6.06,5.57,11.27,9.68,15.63c4.11,4.37,9.03,7.81,14.74,10.29
		c5.72,2.49,11.94,3.74,18.67,3.74c10.08,0,18.86-2.72,26.32-8.17c7.46-5.44,12.74-12.81,15.84-22.09l-7.47-1.21
		C773.97,166.71,769.6,172.66,763.55,177.04z"/>
	<path class="st3" d="M1014.91,121.05c-2.29-6.06-5.46-11.3-9.5-15.74c-4.05-4.44-8.86-7.86-14.46-10.29
		c-5.6-2.42-11.63-3.63-18.11-3.63c-9.03,0-16.98,2.29-23.86,6.86c-6.87,4.58-12,10.76-15.36,18.56v-23.4h-7.87V237.6h7.87v-72.37
		c3.37,7.8,8.5,13.98,15.36,18.56c6.88,4.57,14.84,6.86,23.86,6.86c6.48,0,12.5-1.21,18.11-3.63c5.59-2.43,10.41-5.85,14.46-10.29
		c4.04-4.44,7.21-9.69,9.5-15.74c2.29-6.05,3.43-12.71,3.43-19.97C1018.34,133.76,1017.2,127.1,1014.91,121.05z M1007.25,158.07
		c-1.89,5.18-4.55,9.65-7.97,13.42c-3.43,3.77-7.47,6.69-12.1,8.78c-4.64,2.08-9.79,3.12-15.44,3.12c-5.52,0-10.62-1.04-15.33-3.12
		c-4.71-2.08-8.77-5.01-12.2-8.78c-3.43-3.77-6.09-8.24-7.97-13.42c-1.89-5.17-2.83-10.85-2.83-17.05c0-6.18,0.94-11.87,2.83-17.04
		c1.88-5.18,4.53-9.65,7.97-13.42c3.43-3.76,7.49-6.68,12.2-8.78c4.71-2.08,9.81-3.12,15.33-3.12c5.65,0,10.8,1.04,15.44,3.12
		c4.63,2.09,8.67,5.02,12.1,8.78c3.42,3.77,6.08,8.24,7.97,13.42c1.88,5.17,2.82,10.86,2.82,17.04
		C1010.07,147.21,1009.13,152.89,1007.25,158.07z"/>
	<path class="st3" d="M1133.34,140.82c0-7.4-1.16-14.12-3.44-20.18c-2.29-6.05-5.48-11.26-9.6-15.63
		c-4.11-4.36-8.96-7.73-14.55-10.08c-5.6-2.35-11.69-3.53-18.3-3.53c-6.74,0-12.93,1.21-18.6,3.63
		c-5.66,2.43-10.55,5.85-14.65,10.29c-4.11,4.44-7.32,9.69-9.61,15.74c-2.29,6.05-3.43,12.71-3.43,19.96
		c0,7.27,1.17,13.93,3.51,19.97c2.34,6.06,5.57,11.3,9.68,15.74c4.11,4.44,9.03,7.86,14.75,10.29c5.71,2.42,11.93,3.63,18.66,3.63
		c9.41,0,17.72-2.39,24.92-7.16c7.19-4.77,12.6-11.34,16.24-19.67l-7.47-1.62c-3.09,6.73-7.56,11.97-13.41,15.74
		c-5.85,3.77-12.61,5.65-20.28,5.65c-5.38,0-10.39-0.97-15.03-2.93c-4.64-1.94-8.68-4.74-12.1-8.37c-3.43-3.64-6.12-7.94-8.07-12.91
		c-1.95-4.98-3-10.49-3.13-16.54h83.72L1133.34,140.82z M1049.62,136.18c0.4-5.65,1.6-10.8,3.62-15.43
		c2.01-4.64,4.66-8.61,7.95-11.91c3.28-3.29,7.17-5.85,11.67-7.67c4.49-1.81,9.35-2.72,14.59-2.72c5.23,0,10.05,0.91,14.48,2.72
		c4.43,1.81,8.32,4.37,11.67,7.67c3.36,3.3,6,7.27,7.95,11.91c1.95,4.63,3.12,9.78,3.53,15.43H1049.62z"/>
	<g>
		<path class="st1" d="M383.69,288.24l-2.25-5.24h-10.12l-2.21,5.24h-1.47l8.03-19.17h1.24l8.26,19.17H383.69z M376.33,271.01
			l-4.46,10.71h9.05L376.33,271.01z"/>
		<path class="st1" d="M401.29,273.17c1.76,0,3.16,0.58,4.2,1.73c1.04,1.15,1.56,2.68,1.56,4.56v8.78h-1.34v-8.5
			c0-1.67-0.42-2.98-1.25-3.93c-0.83-0.94-1.99-1.42-3.48-1.42c-1.43,0-2.66,0.53-3.69,1.6s-1.55,2.34-1.55,3.82v8.43h-1.34v-14.78
			h1l0.27,2.99c0.54-1.01,1.31-1.81,2.31-2.4C398.99,273.46,400.09,273.17,401.29,273.17z"/>
		<path class="st1" d="M444.77,288.24l-2.25-5.24h-10.12l-2.21,5.24h-1.47l8.03-19.17h1.24l8.26,19.17H444.77z M437.41,271.01
			l-4.46,10.71h9.05L437.41,271.01z"/>
		<path class="st1" d="M455.31,270.41v-1.9H457v1.9H455.31z M455.49,288.24v-14.78h1.34v14.78H455.49z"/>
		<path class="st1" d="M474.29,273.41h1.28v1.28h-1.38c-1.47,0-2.65,0.49-3.54,1.47c-0.89,0.98-1.33,2.26-1.33,3.85v8.23h-1.34
			v-14.78h1l0.23,2.91c0.51-0.94,1.19-1.68,2.04-2.19C472.12,273.66,473.13,273.41,474.29,273.41z"/>
		<path class="st1" d="M488.72,288.54c-1.68,0-3.03-0.4-4.05-1.2c-1.02-0.8-1.57-1.89-1.67-3.28h1.31c0.1,1.02,0.54,1.82,1.33,2.39
			c0.79,0.57,1.83,0.85,3.12,0.85c1.29,0,2.33-0.27,3.11-0.82c0.78-0.55,1.18-1.29,1.18-2.21c0-0.28-0.03-0.53-0.09-0.77
			c-0.06-0.24-0.16-0.45-0.3-0.63c-0.14-0.18-0.28-0.35-0.43-0.49c-0.15-0.14-0.34-0.27-0.59-0.38c-0.24-0.11-0.47-0.21-0.66-0.29
			c-0.2-0.08-0.45-0.16-0.78-0.23c-0.32-0.07-0.59-0.13-0.81-0.17c-0.22-0.04-0.51-0.09-0.86-0.15c-0.37-0.06-0.66-0.11-0.86-0.15
			c-0.2-0.04-0.47-0.09-0.83-0.17c-0.36-0.08-0.63-0.15-0.82-0.22c-0.19-0.07-0.43-0.16-0.72-0.28c-0.29-0.12-0.52-0.24-0.68-0.37
			c-0.17-0.13-0.35-0.29-0.54-0.47c-0.2-0.19-0.34-0.39-0.44-0.61c-0.1-0.22-0.18-0.47-0.25-0.75c-0.07-0.29-0.11-0.59-0.11-0.92
			c0-1.2,0.49-2.18,1.48-2.92c0.99-0.74,2.28-1.12,3.88-1.12c1.6,0,2.89,0.38,3.84,1.14c0.96,0.76,1.47,1.8,1.53,3.12h-1.28
			c-0.06-0.96-0.45-1.71-1.18-2.25c-0.72-0.53-1.7-0.8-2.94-0.8c-1.21,0-2.19,0.26-2.92,0.77c-0.74,0.51-1.1,1.19-1.1,2.02
			c0,0.32,0.05,0.61,0.14,0.86c0.09,0.25,0.25,0.47,0.47,0.66c0.22,0.18,0.44,0.33,0.64,0.45c0.2,0.12,0.51,0.22,0.91,0.33
			c0.4,0.1,0.73,0.18,0.98,0.23c0.25,0.05,0.62,0.11,1.12,0.19c0.7,0.12,1.23,0.21,1.6,0.29c0.37,0.08,0.85,0.22,1.43,0.43
			c0.58,0.21,1.03,0.46,1.33,0.74c0.3,0.28,0.57,0.66,0.82,1.15c0.24,0.49,0.36,1.06,0.36,1.71c0,1.31-0.52,2.36-1.56,3.15
			C491.79,288.14,490.42,288.54,488.72,288.54z"/>
		<path class="st1" d="M514.93,286.77c-1.14,1.18-2.68,1.77-4.62,1.77c-1.93,0-3.47-0.59-4.62-1.77c-1.14-1.18-1.72-2.76-1.72-4.74
			v-8.57h1.35v8.38c0,1.67,0.45,2.98,1.34,3.95c0.9,0.97,2.11,1.45,3.64,1.45c1.54,0,2.76-0.48,3.65-1.45
			c0.89-0.97,1.34-2.28,1.34-3.95v-8.38h1.35v8.57C516.65,284.01,516.08,285.59,514.93,286.77z"/>
		<path class="st1" d="M533.85,273.41h1.28v1.28h-1.38c-1.47,0-2.65,0.49-3.54,1.47c-0.89,0.98-1.33,2.26-1.33,3.85v8.23h-1.34
			v-14.78h1l0.23,2.91c0.51-0.94,1.19-1.68,2.04-2.19C531.68,273.66,532.69,273.41,533.85,273.41z"/>
		<path class="st1" d="M555.95,273.46h0.95v12.65c0,2.39-0.63,4.26-1.89,5.63c-1.26,1.36-2.99,2.05-5.19,2.05
			c-1.69,0-3.12-0.41-4.28-1.23c-1.16-0.82-1.96-1.97-2.41-3.45h1.34c0.4,1.1,1.07,1.95,2.01,2.55c0.94,0.6,2.05,0.9,3.33,0.9
			c1.77,0,3.18-0.56,4.21-1.68c1.03-1.12,1.55-2.66,1.55-4.62v-1.68c-0.64,0.99-1.49,1.77-2.54,2.33c-1.05,0.56-2.22,0.84-3.5,0.84
			c-1.35,0-2.57-0.32-3.68-0.96c-1.1-0.64-1.97-1.51-2.61-2.63c-0.63-1.11-0.95-2.35-0.95-3.7c0-1.35,0.32-2.59,0.95-3.7
			c0.63-1.11,1.5-1.99,2.61-2.63c1.11-0.64,2.33-0.96,3.67-0.96c1.33,0,2.54,0.31,3.62,0.92c1.09,0.61,1.95,1.46,2.58,2.53
			L555.95,273.46z M545.38,284.72c1.14,1.15,2.57,1.72,4.28,1.72c1.71,0,3.12-0.57,4.24-1.7c1.11-1.13,1.67-2.56,1.67-4.29
			c0-1.73-0.56-3.16-1.68-4.3c-1.12-1.14-2.53-1.7-4.23-1.7c-1.71,0-3.14,0.57-4.28,1.72c-1.14,1.15-1.71,2.57-1.71,4.28
			C543.67,282.15,544.24,283.58,545.38,284.72z"/>
		<path class="st1" d="M581.61,280.8c0,0.12-0.01,0.29-0.03,0.52h-13.42c0.11,1.73,0.73,3.15,1.88,4.25
			c1.14,1.1,2.56,1.66,4.24,1.66c1.2,0,2.28-0.29,3.22-0.86c0.94-0.57,1.69-1.38,2.25-2.43h1.42c-0.68,1.48-1.61,2.62-2.79,3.41
			c-1.18,0.79-2.55,1.19-4.09,1.19c-2.12,0-3.89-0.74-5.32-2.21c-1.43-1.47-2.14-3.3-2.14-5.49c0-1.43,0.33-2.74,0.98-3.91
			c0.65-1.17,1.55-2.09,2.69-2.76c1.14-0.67,2.41-1,3.8-1c1.42,0,2.69,0.34,3.81,1.02c1.12,0.68,1.99,1.6,2.6,2.75
			C581.31,278.09,581.61,279.38,581.61,280.8z M574.29,274.44c-1.64,0-3.02,0.53-4.15,1.58c-1.13,1.05-1.78,2.41-1.95,4.06h12.1
			c-0.16-1.68-0.8-3.05-1.91-4.08C577.26,274.96,575.9,274.44,574.29,274.44z"/>
		<path class="st1" d="M612.65,279.09h10.32c-0.04,1.37-0.31,2.64-0.79,3.81c-0.49,1.17-1.14,2.16-1.97,2.99
			c-0.82,0.83-1.81,1.47-2.97,1.93s-2.4,0.7-3.74,0.7c-1.84,0-3.5-0.42-4.97-1.27c-1.47-0.85-2.61-2.02-3.42-3.52
			c-0.82-1.5-1.22-3.18-1.22-5.05s0.41-3.56,1.24-5.06c0.83-1.5,1.97-2.68,3.44-3.52c1.46-0.85,3.1-1.27,4.91-1.27
			c2.25,0,4.24,0.64,5.96,1.92c1.72,1.28,2.79,2.91,3.21,4.9h-1.42c-0.41-1.6-1.33-2.92-2.77-3.94c-1.43-1.02-3.09-1.53-4.96-1.53
			c-1.56,0-2.97,0.36-4.22,1.09c-1.25,0.73-2.23,1.74-2.93,3.03c-0.7,1.3-1.06,2.76-1.06,4.38c0,2.5,0.76,4.53,2.29,6.12
			c1.53,1.58,3.5,2.37,5.92,2.37c2.13,0,3.93-0.62,5.39-1.86c1.46-1.24,2.33-2.87,2.59-4.89h-8.84V279.09z"/>
		<path class="st1" d="M639.19,273.41h1.28v1.28h-1.38c-1.47,0-2.65,0.49-3.54,1.47c-0.89,0.98-1.33,2.26-1.33,3.85v8.23h-1.34
			v-14.78h1l0.23,2.91c0.51-0.94,1.19-1.68,2.04-2.19C637.03,273.66,638.03,273.41,639.19,273.41z"/>
		<path class="st1" d="M655.24,288.54c-1.45,0-2.77-0.33-3.95-1c-1.18-0.66-2.11-1.58-2.78-2.75c-0.67-1.17-1.01-2.48-1.01-3.94
			c0-2.21,0.74-4.04,2.21-5.5c1.47-1.46,3.32-2.19,5.53-2.19c2.21,0,4.05,0.73,5.53,2.19c1.47,1.46,2.21,3.29,2.21,5.49
			c0,2.2-0.74,4.03-2.21,5.49C659.29,287.81,657.45,288.54,655.24,288.54z M655.24,287.24c1.84,0,3.36-0.61,4.56-1.82
			c1.21-1.21,1.81-2.74,1.81-4.57c0-1.84-0.6-3.36-1.81-4.57c-1.21-1.21-2.73-1.82-4.56-1.82c-1.84,0-3.36,0.6-4.57,1.81
			c-1.21,1.21-1.81,2.73-1.81,4.58c0,1.84,0.61,3.36,1.82,4.57C651.89,286.64,653.41,287.24,655.24,287.24z"/>
		<path class="st1" d="M683.55,286.77c-1.14,1.18-2.68,1.77-4.62,1.77c-1.93,0-3.47-0.59-4.62-1.77c-1.14-1.18-1.72-2.76-1.72-4.74
			v-8.57h1.35v8.38c0,1.67,0.45,2.98,1.34,3.95c0.9,0.97,2.11,1.45,3.64,1.45c1.54,0,2.76-0.48,3.65-1.45
			c0.89-0.97,1.34-2.28,1.34-3.95v-8.38h1.35v8.57C685.27,284.01,684.7,285.59,683.55,286.77z"/>
		<path class="st1" d="M703.84,273.17c2.18,0,3.99,0.73,5.41,2.19s2.13,3.29,2.13,5.49c0,2.2-0.71,4.03-2.13,5.49
			s-3.22,2.19-5.41,2.19c-1.34,0-2.56-0.3-3.67-0.9c-1.11-0.6-2-1.43-2.67-2.48v8.33h-1.34v-20.02h0.98l0.28,3.22
			c0.67-1.1,1.56-1.96,2.68-2.58C701.23,273.48,702.47,273.17,703.84,273.17z M703.76,287.24c1.81,0,3.31-0.6,4.49-1.81
			c1.18-1.21,1.78-2.73,1.78-4.58s-0.59-3.37-1.78-4.58c-1.19-1.21-2.68-1.81-4.49-1.81c-1.8,0-3.3,0.61-4.5,1.82
			c-1.2,1.22-1.8,2.74-1.8,4.56c0,1.82,0.6,3.34,1.8,4.56C700.46,286.63,701.96,287.24,703.76,287.24z"/>
		<path class="st1" d="M745,273.46h1.38l-6.47,14.78h-1.18l-6.62-14.78h1.4l5.8,12.98L745,273.46z"/>
		<path class="st1" d="M768.79,280.8c0,0.12-0.01,0.29-0.03,0.52h-13.42c0.11,1.73,0.73,3.15,1.88,4.25
			c1.14,1.1,2.56,1.66,4.24,1.66c1.2,0,2.28-0.29,3.22-0.86c0.94-0.57,1.69-1.38,2.25-2.43h1.42c-0.68,1.48-1.61,2.62-2.79,3.41
			c-1.18,0.79-2.55,1.19-4.09,1.19c-2.12,0-3.89-0.74-5.32-2.21c-1.43-1.47-2.14-3.3-2.14-5.49c0-1.43,0.33-2.74,0.98-3.91
			c0.65-1.17,1.55-2.09,2.69-2.76c1.14-0.67,2.41-1,3.8-1c1.42,0,2.69,0.34,3.81,1.02c1.12,0.68,1.99,1.6,2.6,2.75
			C768.48,278.09,768.79,279.38,768.79,280.8z M761.47,274.44c-1.64,0-3.02,0.53-4.15,1.58c-1.13,1.05-1.78,2.41-1.95,4.06h12.1
			c-0.16-1.68-0.8-3.05-1.91-4.08C764.44,274.96,763.08,274.44,761.47,274.44z"/>
		<path class="st1" d="M785.52,273.17c1.76,0,3.16,0.58,4.2,1.73c1.04,1.15,1.56,2.68,1.56,4.56v8.78h-1.34v-8.5
			c0-1.67-0.42-2.98-1.25-3.93c-0.83-0.94-1.99-1.42-3.48-1.42c-1.43,0-2.66,0.53-3.69,1.6c-1.03,1.07-1.55,2.34-1.55,3.82v8.43
			h-1.34v-14.78h1l0.27,2.99c0.54-1.01,1.31-1.81,2.31-2.4C783.21,273.46,784.32,273.17,785.52,273.17z"/>
		<path class="st1" d="M807.53,286.99h1.62v1.26h-1.76c-1.44,0-2.58-0.42-3.42-1.26c-0.83-0.84-1.25-1.99-1.25-3.45v-8.85h-2.46
			v-0.31l3.54-3.53h0.27v2.61h4.96v1.23h-4.96v8.81c0,1.11,0.3,1.97,0.9,2.58S806.42,286.99,807.53,286.99z"/>
		<path class="st1" d="M829.18,286.77c-1.14,1.18-2.69,1.77-4.62,1.77c-1.93,0-3.47-0.59-4.62-1.77c-1.14-1.18-1.72-2.76-1.72-4.74
			v-8.57h1.35v8.38c0,1.67,0.45,2.98,1.34,3.95c0.9,0.97,2.11,1.45,3.64,1.45c1.54,0,2.76-0.48,3.65-1.45
			c0.89-0.97,1.34-2.28,1.34-3.95v-8.38h1.35v8.57C830.9,284.01,830.33,285.59,829.18,286.77z"/>
		<path class="st1" d="M848.1,273.41h1.28v1.28h-1.38c-1.47,0-2.65,0.49-3.54,1.47c-0.89,0.98-1.33,2.26-1.33,3.85v8.23h-1.34
			v-14.78h1l0.23,2.91c0.51-0.94,1.19-1.68,2.04-2.19S846.94,273.41,848.1,273.41z"/>
		<path class="st1" d="M871.21,280.8c0,0.12-0.01,0.29-0.03,0.52h-13.42c0.11,1.73,0.73,3.15,1.88,4.25
			c1.14,1.1,2.56,1.66,4.24,1.66c1.2,0,2.28-0.29,3.22-0.86c0.94-0.57,1.69-1.38,2.25-2.43h1.42c-0.68,1.48-1.61,2.62-2.79,3.41
			c-1.18,0.79-2.55,1.19-4.09,1.19c-2.12,0-3.89-0.74-5.32-2.21c-1.43-1.47-2.14-3.3-2.14-5.49c0-1.43,0.33-2.74,0.98-3.91
			c0.65-1.17,1.55-2.09,2.69-2.76c1.14-0.67,2.41-1,3.8-1c1.42,0,2.69,0.34,3.81,1.02c1.12,0.68,1.99,1.6,2.6,2.75
			C870.9,278.09,871.21,279.38,871.21,280.8z M863.88,274.44c-1.64,0-3.02,0.53-4.15,1.58c-1.13,1.05-1.78,2.41-1.95,4.06h12.1
			c-0.16-1.68-0.8-3.05-1.91-4.08C866.86,274.96,865.49,274.44,863.88,274.44z"/>
	</g>
	<g>
		<path class="st3" d="M853.03,91.39c-27.69-0.35-50.36,21.3-50.81,48.5c-0.45,27.83,21.7,50.64,49.52,51
			c27.43,0.36,49.9-21.74,50.28-49.43C902.39,114.5,880.12,91.73,853.03,91.39z M851.74,184.84c-24.21-0.38-43.83-20.36-43.57-44.4
			c0.24-23.91,20.27-43.29,44.45-43.04c23.79,0.24,43.8,20.34,43.55,43.74C895.92,165.71,876.07,185.22,851.74,184.84z"/>
	</g>
	<g>
		<path class="st2" d="M535.47,91.39c-27.69-0.35-50.36,21.3-50.81,48.5c-0.45,27.83,21.7,50.64,49.52,51
			c27.43,0.36,49.9-21.74,50.28-49.43C584.82,114.5,562.55,91.73,535.47,91.39z M534.17,184.84c-24.21-0.38-43.83-20.36-43.57-44.4
			c0.24-23.91,20.27-43.29,44.45-43.04c23.79,0.24,43.8,20.34,43.55,43.74C578.35,165.71,558.5,185.22,534.17,184.84z"/>
	</g>
	<path class="st4" d="M266.77,137.34c0,54.89-44.49,99.39-99.38,99.39c-54.89,0-99.39-44.5-99.39-99.39c0-0.24,0-0.49,0-0.73h36.49
		c0,0.24,0,0.49,0,0.73c0,34.73,28.16,62.89,62.89,62.89c34.73,0,62.89-28.16,62.89-62.89c0-0.24,0-0.49,0-0.73h36.49
		C266.77,136.85,266.77,137.1,266.77,137.34z"/>
	<g>
		<path class="st5" d="M107.56,176.33l-12.8,7.22c-1.43,0.8-2.81,1.01-4.16,0.61c-1.35-0.4-2.43-1.32-3.24-2.76
			c-0.82-1.46-1.05-2.87-0.67-4.24c0.37-1.37,1.32-2.48,2.82-3.33l1.28,2.26c-0.84,0.49-1.4,1.1-1.69,1.82
			c-0.29,0.72-0.2,1.51,0.28,2.35c0.48,0.85,1.08,1.33,1.82,1.46c0.74,0.13,1.5-0.03,2.28-0.47l12.8-7.22L107.56,176.33z"/>
		<path class="st5" d="M102.48,199.95c-0.53-1.67-0.59-3.37-0.18-5.11c0.41-1.74,1.27-3.32,2.59-4.74c1.32-1.42,2.83-2.4,4.53-2.94
			c1.7-0.54,3.41-0.6,5.11-0.2c1.7,0.4,3.23,1.23,4.59,2.48c1.37,1.27,2.31,2.74,2.84,4.41c0.53,1.67,0.59,3.37,0.18,5.09
			c-0.41,1.73-1.28,3.31-2.61,4.74c-1.33,1.44-2.84,2.42-4.53,2.96c-1.69,0.54-3.39,0.6-5.09,0.2c-1.71-0.4-3.24-1.23-4.61-2.5
			C103.95,203.08,103.01,201.62,102.48,199.95z M110.25,204.52c1.26,0.28,2.53,0.2,3.81-0.24c1.28-0.45,2.46-1.25,3.53-2.41
			c1.09-1.17,1.8-2.41,2.14-3.72c0.34-1.31,0.33-2.57-0.04-3.79c-0.37-1.22-1.07-2.32-2.1-3.27c-1.03-0.96-2.17-1.57-3.42-1.85
			c-1.25-0.28-2.51-0.19-3.79,0.24c-1.28,0.44-2.46,1.24-3.54,2.42c-1.07,1.16-1.78,2.39-2.13,3.71c-0.35,1.31-0.33,2.58,0.04,3.82
			c0.38,1.23,1.07,2.32,2.09,3.26C107.86,203.63,108.99,204.24,110.25,204.52z"/>
		<path class="st5" d="M134.49,200.75l-5.02,11.54c-0.71,1.62-0.83,3-0.38,4.13c0.45,1.13,1.38,2,2.8,2.62
			c1.4,0.61,2.66,0.69,3.8,0.25c1.14-0.44,2.06-1.47,2.76-3.09l5.02-11.54l2.38,1.04l-5.01,11.51c-0.66,1.52-1.52,2.66-2.59,3.43
			c-1.06,0.77-2.22,1.19-3.48,1.24c-1.26,0.05-2.53-0.2-3.82-0.76c-1.29-0.56-2.35-1.32-3.16-2.28c-0.82-0.96-1.3-2.09-1.45-3.39
			c-0.15-1.3,0.11-2.71,0.77-4.23l5.01-11.51L134.49,200.75z"/>
		<path class="st5" d="M161.81,228.4l-3.87-8.58l-3.12-0.33l-0.84,8.09l-2.58-0.27l2.06-19.79l6.39,0.67
			c1.49,0.16,2.73,0.54,3.71,1.16c0.98,0.62,1.68,1.39,2.1,2.31c0.42,0.92,0.57,1.94,0.46,3.06c-0.14,1.36-0.66,2.52-1.55,3.48
			c-0.89,0.96-2.14,1.53-3.75,1.7l4.1,8.81L161.81,228.4z M155.03,217.42l3.8,0.4c1.4,0.15,2.49-0.09,3.26-0.71
			c0.77-0.62,1.22-1.5,1.34-2.66c0.12-1.17-0.13-2.12-0.75-2.83c-0.62-0.71-1.65-1.15-3.06-1.29l-3.8-0.4L155.03,217.42z"/>
		<path class="st5" d="M193.56,225.02l-2.54,0.53l-13.43-13.4l3.2,15.51l-2.54,0.53l-4.03-19.51l2.54-0.53l13.43,13.37l-3.2-15.48
			l2.54-0.53L193.56,225.02z"/>
		<path class="st5" d="M200.19,203.03l3.18,5.84l6.37-3.47l1.02,1.88l-6.37,3.47l3.28,6.02l7.12-3.88l1.02,1.88l-9.4,5.12
			l-9.53-17.5l9.4-5.12l1.02,1.88L200.19,203.03z"/>
		<path class="st5" d="M222.53,183.13l3.96,13.41l5.22,5.39l-1.87,1.81l-5.22-5.39l-13.29-4.38l2.07-2l10.53,3.83l-3.48-10.65
			L222.53,183.13z"/>
		<path class="st5" d="M244.49,185.13c-0.92,0.67-1.88,1.06-2.89,1.16c-1.01,0.1-1.99-0.11-2.94-0.63l1.37-2.4
			c0.86,0.38,1.73,0.43,2.62,0.16c0.89-0.27,1.65-0.97,2.29-2.09c0.61-1.07,0.83-2.07,0.64-3c-0.18-0.93-0.7-1.63-1.54-2.11
			c-0.66-0.38-1.3-0.5-1.92-0.37c-0.62,0.13-1.19,0.4-1.72,0.83c-0.53,0.42-1.18,1.03-1.95,1.81c-0.95,0.97-1.77,1.71-2.45,2.23
			c-0.69,0.52-1.49,0.84-2.4,0.96c-0.91,0.13-1.91-0.12-2.98-0.73c-0.94-0.54-1.64-1.25-2.09-2.15c-0.45-0.89-0.63-1.89-0.53-2.98
			s0.47-2.2,1.11-3.33c0.92-1.62,2.09-2.71,3.48-3.29c1.4-0.57,2.81-0.54,4.22,0.09l-1.41,2.48c-0.71-0.29-1.49-0.28-2.34,0.04
			c-0.85,0.32-1.57,0.99-2.14,2c-0.54,0.94-0.73,1.85-0.58,2.72c0.15,0.87,0.66,1.56,1.54,2.06c0.63,0.36,1.24,0.47,1.84,0.34
			c0.6-0.13,1.15-0.39,1.65-0.8c0.5-0.4,1.16-1,1.96-1.79c0.96-0.96,1.8-1.7,2.5-2.22c0.7-0.52,1.51-0.85,2.43-0.98
			c0.92-0.13,1.92,0.11,3.01,0.73c0.84,0.48,1.51,1.16,2,2.03c0.49,0.87,0.72,1.88,0.68,3.02c-0.04,1.14-0.39,2.3-1.07,3.49
			C246.2,183.56,245.41,184.46,244.49,185.13z"/>
	</g>
	<g>
		<path class="st4" d="M167.39,237.85c-13.57,0-26.73-2.66-39.12-7.9c-11.97-5.06-22.72-12.31-31.95-21.54
			c-9.23-9.23-16.48-19.98-21.54-31.95c-5.24-12.39-7.9-25.55-7.9-39.12s2.66-26.73,7.9-39.12c5.06-11.97,12.31-22.72,21.54-31.95
			c9.23-9.23,19.98-16.48,31.95-21.54c12.39-5.24,25.55-7.9,39.12-7.9s26.73,2.66,39.12,7.9c11.97,5.06,22.72,12.31,31.95,21.54
			c9.23,9.23,16.48,19.98,21.54,31.95c5.24,12.39,7.9,25.55,7.9,39.12s-2.66,26.73-7.9,39.12c-5.06,11.97-12.31,22.72-21.54,31.95
			c-9.23,9.23-19.98,16.48-31.95,21.54C194.12,235.19,180.96,237.85,167.39,237.85z M167.39,39.08c-54.18,0-98.26,44.08-98.26,98.26
			s44.08,98.26,98.26,98.26s98.26-44.08,98.26-98.26S221.57,39.08,167.39,39.08z"/>
	</g>
	<g>
		<path class="st4" d="M230.28,136.98c-0.39-34.28-28.6-62.16-62.89-62.16c-34.29,0-62.5,27.89-62.89,62.16l-1.44-0.02
			c0.19-17.03,6.97-33.01,19.08-44.99c12.12-11.99,28.19-18.6,45.25-18.6c17.05,0,33.12,6.6,45.24,18.6
			c12.11,11.98,18.89,27.96,19.08,44.99L230.28,136.98z"/>
	</g>
	<g>
		<path class="st4" d="M99.56,94.46c0.7-0.3,1.45-0.44,2.24-0.41c0.79,0.03,1.53,0.23,2.23,0.61c0.89,0.48,1.56,1.14,2.03,1.98
			c0.47,0.84,0.67,1.8,0.61,2.88c-0.06,1.08-0.4,2.21-1.04,3.38l-3.54,6.52l-17.48-9.49l3.4-6.27c0.64-1.19,1.39-2.09,2.24-2.72
			c0.85-0.62,1.72-0.96,2.61-1.02c0.9-0.05,1.76,0.14,2.6,0.6c1.04,0.56,1.74,1.31,2.12,2.24c0.37,0.93,0.46,1.93,0.26,3.02
			C98.28,95.2,98.86,94.76,99.56,94.46z M93.39,101.75l2.08-3.84c0.58-1.07,0.78-2.03,0.6-2.89c-0.18-0.86-0.72-1.53-1.61-2.01
			c-0.89-0.48-1.74-0.56-2.56-0.25c-0.82,0.31-1.53,1.02-2.13,2.13l-2.06,3.79L93.39,101.75z M104.28,98.99
			c-0.19-0.93-0.76-1.65-1.72-2.16c-0.97-0.53-1.92-0.61-2.84-0.24c-0.92,0.36-1.69,1.11-2.3,2.23l-2.15,3.96l6.17,3.35l2.19-4.04
			C104.26,100.95,104.47,99.91,104.28,98.99z"/>
		<path class="st4" d="M101.02,75.68l14.76,13.34l-1.74,1.93L99.28,77.6L101.02,75.68z"/>
		<path class="st4" d="M124.65,79.43c-1.75,0.09-3.41-0.29-4.99-1.12c-1.58-0.83-2.89-2.07-3.93-3.71
			c-1.04-1.64-1.61-3.35-1.69-5.13c-0.09-1.78,0.28-3.45,1.1-5c0.82-1.55,2.01-2.82,3.57-3.81c1.57-1,3.23-1.54,4.98-1.63
			c1.75-0.09,3.41,0.29,4.97,1.12c1.57,0.83,2.87,2.07,3.93,3.73c1.05,1.65,1.62,3.37,1.71,5.14c0.09,1.77-0.28,3.43-1.1,4.98
			c-0.82,1.55-2.02,2.82-3.59,3.82C128.05,78.81,126.39,79.35,124.65,79.43z M131.04,73.08c0.59-1.14,0.83-2.39,0.73-3.74
			c-0.11-1.35-0.58-2.7-1.43-4.03c-0.86-1.35-1.87-2.35-3.05-3.01c-1.18-0.66-2.4-0.97-3.68-0.92c-1.28,0.05-2.51,0.45-3.7,1.2
			c-1.19,0.76-2.07,1.7-2.66,2.84c-0.58,1.14-0.83,2.38-0.73,3.73c0.1,1.35,0.58,2.69,1.44,4.04c0.85,1.33,1.86,2.33,3.04,3
			c1.18,0.67,2.41,0.98,3.7,0.93c1.29-0.05,2.52-0.45,3.69-1.2C129.57,75.17,130.45,74.23,131.04,73.08z"/>
		<path class="st4" d="M147.8,68.79c-1.12-0.22-2.06-0.66-2.82-1.33c-0.76-0.67-1.28-1.53-1.54-2.58l2.7-0.63
			c0.3,0.89,0.86,1.56,1.66,2.03c0.8,0.47,1.83,0.55,3.09,0.26c1.2-0.28,2.08-0.8,2.64-1.57c0.55-0.76,0.72-1.62,0.5-2.56
			c-0.17-0.74-0.52-1.3-1.03-1.66c-0.52-0.37-1.11-0.6-1.78-0.7c-0.67-0.1-1.55-0.16-2.66-0.2c-1.36-0.03-2.46-0.13-3.3-0.28
			c-0.85-0.15-1.63-0.52-2.34-1.11c-0.71-0.59-1.21-1.48-1.49-2.68c-0.25-1.06-0.2-2.05,0.15-3c0.35-0.94,0.95-1.75,1.82-2.42
			c0.87-0.67,1.93-1.16,3.19-1.45c1.82-0.42,3.41-0.32,4.78,0.32c1.37,0.64,2.3,1.69,2.8,3.15l-2.78,0.65
			c-0.27-0.72-0.81-1.28-1.63-1.69c-0.82-0.4-1.79-0.47-2.92-0.21c-1.06,0.25-1.85,0.72-2.39,1.42c-0.54,0.7-0.69,1.54-0.46,2.53
			c0.16,0.7,0.5,1.23,1,1.58c0.5,0.35,1.07,0.58,1.71,0.67c0.64,0.1,1.52,0.17,2.64,0.22c1.36,0.05,2.47,0.16,3.33,0.32
			c0.86,0.16,1.65,0.53,2.37,1.12c0.72,0.58,1.23,1.49,1.51,2.71c0.22,0.94,0.18,1.89-0.13,2.84c-0.31,0.95-0.89,1.8-1.75,2.55
			c-0.86,0.75-1.96,1.28-3.29,1.59C150.11,68.97,148.92,69.01,147.8,68.79z"/>
		<path class="st4" d="M167.68,51.04c1.03-1.45,2.34-2.54,3.93-3.26c1.59-0.72,3.31-0.99,5.14-0.8c2.16,0.22,3.99,0.93,5.49,2.13
			c1.5,1.2,2.53,2.8,3.07,4.79l-3.09-0.31c-0.43-1.25-1.13-2.25-2.09-2.99c-0.97-0.75-2.17-1.19-3.61-1.34
			c-1.38-0.14-2.65,0.06-3.82,0.59c-1.16,0.53-2.12,1.36-2.86,2.48c-0.74,1.12-1.2,2.47-1.36,4.07c-0.16,1.57,0.01,2.98,0.52,4.23
			c0.5,1.25,1.27,2.25,2.31,3c1.03,0.75,2.24,1.2,3.62,1.34c1.44,0.15,2.71-0.05,3.8-0.58c1.1-0.53,1.98-1.36,2.65-2.5l3.09,0.31
			c-0.93,1.82-2.25,3.16-3.96,4.03c-1.71,0.87-3.65,1.19-5.81,0.98c-1.84-0.19-3.46-0.79-4.88-1.8c-1.42-1.01-2.48-2.33-3.2-3.95
			c-0.72-1.62-0.98-3.4-0.78-5.33C166.05,54.18,166.66,52.49,167.68,51.04z"/>
		<path class="st4" d="M195.54,71.08c-0.96-1.46-1.48-3.09-1.56-4.87c-0.08-1.78,0.32-3.54,1.2-5.27c0.88-1.73,2.07-3.08,3.57-4.06
			c1.49-0.98,3.12-1.51,4.86-1.58c1.75-0.08,3.45,0.3,5.09,1.14c1.66,0.85,2.97,2.01,3.93,3.47c0.96,1.46,1.48,3.08,1.56,4.85
			c0.08,1.77-0.33,3.53-1.22,5.27c-0.89,1.74-2.08,3.1-3.56,4.08c-1.48,0.97-3.1,1.5-4.85,1.58c-1.75,0.08-3.45-0.31-5.11-1.16
			C197.8,73.7,196.5,72.55,195.54,71.08z M204.25,73.38c1.29-0.07,2.48-0.49,3.6-1.27c1.11-0.78,2.03-1.87,2.75-3.27
			c0.73-1.42,1.08-2.81,1.05-4.16c-0.03-1.35-0.38-2.56-1.07-3.64c-0.69-1.08-1.66-1.94-2.91-2.58c-1.25-0.64-2.52-0.92-3.8-0.85
			c-1.28,0.07-2.47,0.49-3.58,1.26c-1.11,0.77-2.03,1.86-2.76,3.29c-0.72,1.41-1.07,2.79-1.05,4.14c0.02,1.36,0.38,2.58,1.08,3.66
			c0.7,1.08,1.66,1.94,2.9,2.57C201.71,73.17,202.97,73.45,204.25,73.38z"/>
		<path class="st4" d="M229.39,85.48c-1.57-0.06-3.16-0.92-4.77-2.6l-2.65-2.76l-5.99,5.75l-1.8-1.87l14.35-13.78l4.45,4.63
			c1.56,1.62,2.35,3.23,2.38,4.82c0.03,1.6-0.57,2.99-1.81,4.17C232.34,84.99,230.96,85.54,229.39,85.48z M229.05,83.05
			c0.93,0.06,1.81-0.31,2.65-1.12c1.77-1.7,1.68-3.57-0.27-5.6l-2.65-2.76l-5.27,5.06l2.65,2.76
			C227.16,82.44,228.12,82.99,229.05,83.05z"/>
		<path class="st4" d="M244.57,93.98l-5.89,3.09l3.37,6.42l-1.89,1l-3.37-6.42l-6.06,3.19l3.77,7.17l-1.89,1l-4.98-9.47l17.63-9.27
			l4.98,9.47l-1.89,1L244.57,93.98z"/>
	</g>
	<path class="st4" d="M185.81,135.62l-4.61-0.39l3.29-0.39c12.97-1.77,19.51-8.67,19.51-16.92c0-6.93-3.8-13.08-10.67-16.9
		c-2.54-1.41-8.1-4.08-20.01-4.08h-10.58h-16.85h-7.43v1.74c3.58,0,6.76,1.96,7.04,6.3l0,0.18v21.92h1.86
		c10.16-0.13,17.65-7.76,17.65-16.51V99.93h3.56l1.17,0c8.13,0.01,14.55,7.9,14.74,15.31l-0.03-0.01
		c0.23,17.18-14.92,19.51-14.92,19.51c0-0.04,0,1.87,0,1.87l2.22-0.07c6.27,0,16.61,3.85,16.61,20.08l0.03-0.01
		c0,10.52-6.04,18.05-14.72,18.07l-1.25,0l0,0c-1.74,0-3.2,0.33-3.2,1.9v1.15h5.05c12.89-0.19,20.26-2.49,22.97-4.04
		c7.33-4.19,10.58-10.94,10.58-18.55C207.82,146.1,199.65,137.56,185.81,135.62z"/>
	<circle class="st6" cx="155.68" cy="134.53" r="5.68"/>
	<path class="st6" d="M164.42,142.02c-10.28,0-18.61,6.74-18.61,17.02v9.75c0,2.79-1.99,7.23-6.05,7.23h0h-1.02v1.07v0.42h7.06h8.83
		h1.69c1.08,0,2.1-0.2,3.05-0.58c3.07-1.21,5.25-4.21,5.25-7.71v-26.99C164.63,142.11,164.54,142.02,164.42,142.02z"/>
	<g>
		<path class="st4" d="M167.39,196.16c-15.71,0-30.48-6.12-41.59-17.23c-11.11-11.11-17.23-25.88-17.23-41.59
			s6.12-30.48,17.23-41.59s25.88-17.23,41.59-17.23s30.48,6.12,41.59,17.23c11.11,11.11,17.23,25.88,17.23,41.59
			s-6.12,30.48-17.23,41.59C197.87,190.04,183.1,196.16,167.39,196.16z M167.39,83.23c-29.84,0-54.11,24.27-54.11,54.11
			s24.27,54.11,54.11,54.11s54.11-24.27,54.11-54.11S197.22,83.23,167.39,83.23z"/>
	</g>
</g>
</svg>
